<svg width="24" height="25" viewBox="0 0 24 25" fill="none" xmlns="http://www.w3.org/2000/svg">
<g id="Figma">
<g id="Figma_2">
<g id="Color">
<g id="Taobao">
<g id="back">
<g id="path0_fill-link">
<path id="path0_fill" d="M0 12.25C0 5.6226 5.3726 0.25 12 0.25C18.6274 0.25 24 5.6226 24 12.25C24 18.8774 18.6274 24.25 12 24.25C5.3726 24.25 0 18.8774 0 12.25Z" fill="#333333"/>
</g>
</g>
</g>
</g>
<g id="Group">
<g id="5">
<g id="path1_fill-link">
<path id="path1_fill" d="M9.59995 19.4501C10.9254 19.4501 12 18.3756 12 17.0501V14.6501H9.59995C8.27447 14.6501 7.19995 15.7247 7.19995 17.0501C7.19995 18.3756 8.27447 19.4501 9.59995 19.4501Z" fill="#0ACF83"/>
</g>
</g>
<g id="4">
<g id="path2_fill-link">
<path id="path2_fill" d="M7.19995 12.2501C7.19995 10.9246 8.27447 9.8501 9.59995 9.8501H12V14.6501H9.59995C8.27447 14.6501 7.19995 13.5756 7.19995 12.2501Z" fill="#A259FF"/>
</g>
</g>
<g id="3">
<g id="path2_fill-link_2">
<path id="path2_fill_2" d="M7.19995 7.45005C7.19995 6.12456 8.27447 5.05005 9.59995 5.05005H12V9.85005H9.59995C8.27447 9.85005 7.19995 8.77553 7.19995 7.45005Z" fill="#F24E1E"/>
</g>
</g>
<g id="2">
<g id="path3_fill-link">
<path id="path3_fill" d="M12 5.05005H14.4C15.7255 5.05005 16.8 6.12456 16.8 7.45005C16.8 8.77553 15.7255 9.85005 14.4 9.85005H12V5.05005Z" fill="#FF7262"/>
</g>
</g>
<g id="1">
<g id="path4_fill-link">
<path id="path4_fill" d="M16.8 12.2501C16.8 13.5756 15.7255 14.6501 14.4 14.6501C13.0745 14.6501 12 13.5756 12 12.2501C12 10.9246 13.0745 9.8501 14.4 9.8501C15.7255 9.8501 16.8 10.9246 16.8 12.2501Z" fill="#1ABCFE"/>
</g>
</g>
</g>
</g>
</g>
</svg>
