<svg width="93" height="16" viewBox="0 0 93 16" fill="none" xmlns="http://www.w3.org/2000/svg">
<g id="Group 3">
<g id="UI Unicorn">
<path d="M3.16425 2.31717V10.1895C3.16425 11.052 3.389 11.7141 3.8385 12.1758C4.288 12.6253 4.91973 12.85 5.73368 12.85C6.55979 12.85 7.19759 12.6253 7.64709 12.1758C8.09659 11.7141 8.32134 11.052 8.32134 10.1895V2.31717H10.8908V10.1713C10.8908 11.2525 10.6539 12.1697 10.1801 12.9229C9.71843 13.664 9.09278 14.2228 8.30312 14.5994C7.52561 14.976 6.65698 15.1643 5.69724 15.1643C4.74965 15.1643 3.88709 14.976 3.10958 14.5994C2.34422 14.2228 1.73679 13.664 1.28729 12.9229C0.837787 12.1697 0.613037 11.2525 0.613037 10.1713V2.31717H3.16425Z" fill="#1A1A1A"/>
<path d="M15.9069 2.31717V15.0368H13.3557V2.31717H15.9069Z" fill="#1A1A1A"/>
<path d="M25.2845 2.31717V10.1895C25.2845 11.052 25.5092 11.7141 25.9587 12.1758C26.4082 12.6253 27.04 12.85 27.8539 12.85C28.68 12.85 29.3178 12.6253 29.7673 12.1758C30.2168 11.7141 30.4416 11.052 30.4416 10.1895V2.31717H33.011V10.1713C33.011 11.2525 32.7741 12.1697 32.3003 12.9229C31.8387 13.664 31.213 14.2228 30.4233 14.5994C29.6458 14.976 28.7772 15.1643 27.8175 15.1643C26.8699 15.1643 26.0073 14.976 25.2298 14.5994C24.4644 14.2228 23.857 13.664 23.4075 12.9229C22.958 12.1697 22.7333 11.2525 22.7333 10.1713V2.31717H25.2845Z" fill="#1A1A1A"/>
<path d="M41.0704 4.79549C42.2731 4.79549 43.245 5.17817 43.9861 5.94354C44.7271 6.69675 45.0977 7.75368 45.0977 9.11432V15.0368H42.5464V9.46056C42.5464 8.65875 42.346 8.04525 41.9451 7.62004C41.5442 7.18269 40.9975 6.96402 40.305 6.96402C39.6004 6.96402 39.0416 7.18269 38.6285 7.62004C38.2276 8.04525 38.0272 8.65875 38.0272 9.46056V15.0368H35.4759V4.94127H38.0272V6.19866C38.3673 5.76131 38.7986 5.42114 39.321 5.17817C39.8555 4.92305 40.4387 4.79549 41.0704 4.79549Z" fill="#1A1A1A"/>
<path d="M48.8176 3.73856C48.3681 3.73856 47.9915 3.59885 47.6877 3.31943C47.3962 3.02787 47.2504 2.66948 47.2504 2.24428C47.2504 1.81908 47.3962 1.46677 47.6877 1.18735C47.9915 0.895783 48.3681 0.75 48.8176 0.75C49.2671 0.75 49.6376 0.895783 49.9292 1.18735C50.2329 1.46677 50.3847 1.81908 50.3847 2.24428C50.3847 2.66948 50.2329 3.02787 49.9292 3.31943C49.6376 3.59885 49.2671 3.73856 48.8176 3.73856ZM50.0749 4.94127V15.0368H47.5237V4.94127H50.0749Z" fill="#1A1A1A"/>
<path d="M51.9395 9.98902C51.9395 8.94424 52.1521 8.0331 52.5773 7.25559C53.0025 6.46593 53.5917 5.85849 54.3449 5.43329C55.0982 4.99594 55.9607 4.77727 56.9326 4.77727C58.1839 4.77727 59.2165 5.09313 60.0305 5.72486C60.8566 6.34444 61.4094 7.21914 61.6888 8.34896H58.9371C58.7913 7.91161 58.5423 7.57145 58.19 7.32848C57.8498 7.07336 57.4246 6.9458 56.9144 6.9458C56.1855 6.9458 55.6084 7.21307 55.1832 7.74761C54.758 8.27 54.5454 9.01714 54.5454 9.98902C54.5454 10.9488 54.758 11.6959 55.1832 12.2304C55.6084 12.7528 56.1855 13.014 56.9144 13.014C57.947 13.014 58.6213 12.5524 58.9371 11.6291H61.6888C61.4094 12.7225 60.8566 13.5911 60.0305 14.235C59.2044 14.8788 58.1718 15.2008 56.9326 15.2008C55.9607 15.2008 55.0982 14.9882 54.3449 14.563C53.5917 14.1256 53.0025 13.5182 52.5773 12.7407C52.1521 11.951 51.9395 11.0338 51.9395 9.98902Z" fill="#1A1A1A"/>
<path d="M68.0406 15.2008C67.0687 15.2008 66.194 14.9882 65.4165 14.563C64.639 14.1256 64.0255 13.5121 63.576 12.7225C63.1387 11.9328 62.92 11.0217 62.92 9.98902C62.92 8.95639 63.1447 8.04525 63.5942 7.25559C64.0559 6.46593 64.6815 5.85849 65.4712 5.43329C66.2609 4.99594 67.1416 4.77727 68.1135 4.77727C69.0854 4.77727 69.9662 4.99594 70.7558 5.43329C71.5455 5.85849 72.1651 6.46593 72.6146 7.25559C73.0762 8.04525 73.3071 8.95639 73.3071 9.98902C73.3071 11.0217 73.0702 11.9328 72.5964 12.7225C72.1347 13.5121 71.503 14.1256 70.7012 14.563C69.9115 14.9882 69.0247 15.2008 68.0406 15.2008ZM68.0406 12.9776C68.5023 12.9776 68.9335 12.8682 69.3345 12.6496C69.7475 12.4187 70.0755 12.0786 70.3185 11.6291C70.5615 11.1796 70.683 10.6329 70.683 9.98902C70.683 9.02928 70.4278 8.29429 69.9176 7.78405C69.4195 7.26166 68.806 7.00046 68.0771 7.00046C67.3482 7.00046 66.7346 7.26166 66.2366 7.78405C65.7506 8.29429 65.5076 9.02928 65.5076 9.98902C65.5076 10.9488 65.7445 11.6898 66.2183 12.2122C66.7043 12.7225 67.3117 12.9776 68.0406 12.9776Z" fill="#1A1A1A"/>
<path d="M77.7297 6.50845C78.0577 5.97391 78.4829 5.55478 79.0053 5.25106C79.5398 4.94735 80.1473 4.79549 80.8276 4.79549V7.47426H80.1533C79.3515 7.47426 78.7441 7.66256 78.331 8.03917C77.9301 8.41578 77.7297 9.0718 77.7297 10.0072V15.0368H75.1785V4.94127H77.7297V6.50845Z" fill="#1A1A1A"/>
<path d="M88.1404 4.79549C89.3431 4.79549 90.315 5.17817 91.0561 5.94354C91.7971 6.69675 92.1677 7.75368 92.1677 9.11432V15.0368H89.6164V9.46056C89.6164 8.65875 89.416 8.04525 89.0151 7.62004C88.6142 7.18269 88.0675 6.96402 87.375 6.96402C86.6704 6.96402 86.1116 7.18269 85.6985 7.62004C85.2976 8.04525 85.0972 8.65875 85.0972 9.46056V15.0368H82.5459V4.94127H85.0972V6.19866C85.4373 5.76131 85.8686 5.42114 86.391 5.17817C86.9255 4.92305 87.5087 4.79549 88.1404 4.79549Z" fill="#1A1A1A"/>
</g>
</g>
</svg>
