<svg width="16" height="17" viewBox="0 0 16 17" fill="none" xmlns="http://www.w3.org/2000/svg">
<path d="M8 3.41663C4.36364 3.41663 1.25818 5.67844 0 8.87117C1.25818 12.0639 4.36364 14.3257 8 14.3257C11.6364 14.3257 14.7418 12.0639 16 8.87117C14.7418 5.67844 11.6364 3.41663 8 3.41663ZM8 12.5075C5.99273 12.5075 4.36364 10.8784 4.36364 8.87117C4.36364 6.8639 5.99273 5.23481 8 5.23481C10.0073 5.23481 11.6364 6.8639 11.6364 8.87117C11.6364 10.8784 10.0073 12.5075 8 12.5075ZM8 6.68935C6.79273 6.68935 5.81818 7.6639 5.81818 8.87117C5.81818 10.0784 6.79273 11.053 8 11.053C9.20727 11.053 10.1818 10.0784 10.1818 8.87117C10.1818 7.6639 9.20727 6.68935 8 6.68935Z" fill="#4D4D4D"/>
</svg>
